<svg width="34" height="32" viewBox="0 0 34 32" fill="none" xmlns="http://www.w3.org/2000/svg">
<path fill-rule="evenodd" clip-rule="evenodd" d="M16.9752 31.3161C19.0919 31.3161 21.1879 30.9217 23.1435 30.1554C25.0991 29.3892 26.876 28.266 28.3728 26.8502C29.8695 25.4343 31.0568 23.7535 31.8669 21.9036C32.6769 20.0537 33.0938 18.071 33.0938 16.0687C33.0938 14.0664 32.6769 12.0836 31.8669 10.2338C31.0568 8.38385 29.8695 6.70299 28.3728 5.28714C26.876 3.87129 25.0991 2.74818 23.1435 1.98193C21.1879 1.21567 19.0919 0.821289 16.9752 0.821289C12.7002 0.821289 8.60039 2.4277 5.57755 5.28714C2.55472 8.14658 0.856506 12.0248 0.856506 16.0687C0.856506 20.1125 2.55472 23.9908 5.57755 26.8502C8.60039 29.7096 12.7002 31.3161 16.9752 31.3161ZM16.5597 22.2354L25.5145 12.0705L22.7636 9.90195L15.0624 18.6421L11.0775 14.8709L8.54511 17.2664L13.918 22.3489L15.3042 23.6602L16.5597 22.2354Z" fill="#2ECC71"/>
</svg>
