<svg width="36" height="35" viewBox="0 0 36 35" fill="none" xmlns="http://www.w3.org/2000/svg">
<path fill-rule="evenodd" clip-rule="evenodd" d="M17.8202 0.327637C8.12767 0.327637 0.270142 8.01798 0.270142 17.5043C0.270142 26.9906 8.12767 34.6809 17.8202 34.6809C27.5127 34.6809 35.3702 26.9906 35.3702 17.5043C35.3702 8.01798 27.5127 0.327637 17.8202 0.327637ZM23.5342 21.0994C22.9929 21.0994 22.4739 21.3098 22.0912 21.6844C21.7085 22.0589 21.4935 22.567 21.4935 23.0967C21.4935 23.6264 21.7085 24.1344 22.0912 24.509C22.4739 24.8835 22.9929 25.094 23.5342 25.094C24.0754 25.094 24.5944 24.8835 24.9772 24.509C25.3599 24.1344 25.5749 23.6264 25.5749 23.0967C25.5749 22.567 25.3599 22.0589 24.9772 21.6844C24.5944 21.3098 24.0754 21.0994 23.5342 21.0994ZM10.0655 11.9119C10.0655 11.3822 10.2805 10.8742 10.6632 10.4996C11.0459 10.125 11.565 9.9146 12.1062 9.9146C12.6474 9.9146 13.1665 10.125 13.5492 10.4996C13.9319 10.8742 14.1469 11.3822 14.1469 11.9119C14.1469 12.4416 13.9319 12.9496 13.5492 13.3242C13.1665 13.6987 12.6474 13.9092 12.1062 13.9092C11.565 13.9092 11.0459 13.6987 10.6632 13.3242C10.2805 12.9496 10.0655 12.4416 10.0655 11.9119ZM23.4852 10.2661C23.5973 10.1484 23.7325 10.0539 23.8826 9.98845C24.0328 9.92295 24.195 9.88773 24.3594 9.88489C24.5238 9.88206 24.6871 9.91165 24.8396 9.97193C24.992 10.0322 25.1305 10.1219 25.2468 10.2357C25.363 10.3495 25.4547 10.485 25.5163 10.6343C25.5779 10.7835 25.6081 10.9433 25.6052 11.1042C25.6023 11.2651 25.5663 11.4238 25.4994 11.5708C25.4325 11.7178 25.336 11.8501 25.2157 11.9598L12.1552 24.7424C11.9231 24.9541 11.6161 25.0694 11.2989 25.0639C10.9817 25.0584 10.679 24.9326 10.4547 24.7131C10.2303 24.4935 10.1018 24.1973 10.0963 23.8868C10.0907 23.5764 10.2084 23.2759 10.4247 23.0487L23.4852 10.2661Z" fill="#2ECC71"/>
</svg>
