<svg width="36" height="35" viewBox="0 0 36 35" fill="none" xmlns="http://www.w3.org/2000/svg">
<path fill-rule="evenodd" clip-rule="evenodd" d="M18.3665 0.327637C8.67393 0.327637 0.816406 8.01798 0.816406 17.5043C0.816406 26.9906 8.67393 34.6809 18.3665 34.6809C28.059 34.6809 35.9165 26.9906 35.9165 17.5043C35.9165 8.01798 28.059 0.327637 18.3665 0.327637ZM24.0804 21.0994C23.5392 21.0994 23.0201 21.3098 22.6374 21.6844C22.2547 22.0589 22.0397 22.567 22.0397 23.0967C22.0397 23.6264 22.2547 24.1344 22.6374 24.509C23.0201 24.8835 23.5392 25.094 24.0804 25.094C24.6217 25.094 25.1407 24.8835 25.5234 24.509C25.9061 24.1344 26.1211 23.6264 26.1211 23.0967C26.1211 22.567 25.9061 22.0589 25.5234 21.6844C25.1407 21.3098 24.6217 21.0994 24.0804 21.0994ZM10.6118 11.9119C10.6118 11.3822 10.8268 10.8742 11.2095 10.4996C11.5922 10.125 12.1113 9.9146 12.6525 9.9146C13.1937 9.9146 13.7128 10.125 14.0955 10.4996C14.4782 10.8742 14.6932 11.3822 14.6932 11.9119C14.6932 12.4416 14.4782 12.9496 14.0955 13.3242C13.7128 13.6987 13.1937 13.9092 12.6525 13.9092C12.1113 13.9092 11.5922 13.6987 11.2095 13.3242C10.8268 12.9496 10.6118 12.4416 10.6118 11.9119ZM24.0314 10.2661C24.1435 10.1484 24.2787 10.0539 24.4289 9.98845C24.5791 9.92295 24.7412 9.88773 24.9056 9.88489C25.0701 9.88206 25.2334 9.91165 25.3858 9.97193C25.5383 10.0322 25.6768 10.1219 25.793 10.2357C25.9093 10.3495 26.001 10.485 26.0626 10.6343C26.1241 10.7835 26.1544 10.9433 26.1515 11.1042C26.1486 11.2651 26.1126 11.4238 26.0457 11.5708C25.9788 11.7178 25.8823 11.8501 25.762 11.9598L12.7015 24.7424C12.4694 24.9541 12.1624 25.0694 11.8451 25.0639C11.5279 25.0584 11.2253 24.9326 11.0009 24.7131C10.7766 24.4935 10.6481 24.1973 10.6425 23.8868C10.6369 23.5764 10.7547 23.2759 10.9709 23.0487L24.0314 10.2661Z" fill="#305D9F"/>
</svg>
