<?xml version="1.0" encoding="UTF-8"?>
<svg version="1.1" xmlns="http://www.w3.org/2000/svg" width="1500" height="1500">
<path d="M0 0 C495 0 990 0 1500 0 C1500 495 1500 990 1500 1500 C1005 1500 510 1500 0 1500 C0 1005 0 510 0 0 Z " fill="#FEFEFE" transform="translate(0,0)"/>
<path d="M0 0 C2.4882471 0.00314112 4.97527961 -0.02029568 7.46337891 -0.0456543 C17.97640004 -0.0870891 27.62924389 0.98595964 37.88916016 3.31567383 C38.71512695 3.48881104 39.54109375 3.66194824 40.39208984 3.84033203 C78.98804674 12.05194179 112.20902877 37.78448649 133.88916016 70.31567383 C153.42987147 100.90937495 162.67674956 140.15661207 155.63916016 176.19067383 C144.04651296 228.15693338 116.40638202 278.70167516 90.18994141 324.52270508 C87.94839808 328.44124997 85.73965068 332.37567166 83.55712891 336.32739258 C75.35618069 351.16220631 66.70032553 365.66390613 57.84326172 380.11108398 C55.56622964 383.84525729 53.32761216 387.60101099 51.09619141 391.36254883 C45.03165787 401.57307714 38.67174671 411.55862145 32.11651611 421.46032715 C30.6781751 423.6346118 29.24244751 425.81061338 27.80664062 427.98657227 C24.87683122 432.42478405 21.94056072 436.85867104 19.00054932 441.29013062 C17.80217278 443.09749452 16.60518921 444.90578281 15.40960693 446.71499634 C13.71594177 449.2763542 12.01624729 451.83360555 10.31494141 454.38989258 C9.53920021 455.56659012 9.53920021 455.56659012 8.74778748 456.76705933 C8.26890579 457.48394928 7.79002411 458.20083923 7.29663086 458.93945312 C6.87839554 459.56973923 6.46016022 460.20002533 6.0292511 460.84941101 C4.88916016 462.31567383 4.88916016 462.31567383 2.88916016 463.31567383 C2.09358724 462.09171549 1.29801432 460.86775716 0.50244141 459.64379883 C-0.01721191 458.84433838 -0.53686523 458.04487793 -1.07226562 457.22119141 C-2.23862958 455.42677264 -3.40497012 453.63233865 -4.57128906 451.83789062 C-8.08540833 446.43130012 -11.60031032 441.02521994 -15.1159668 435.61962891 C-16.74261313 433.11775613 -18.3682288 430.61521617 -19.99365234 428.11254883 C-21.96395164 425.07889416 -23.9379083 422.04768591 -25.91552734 419.01879883 C-43.52364135 392.00339275 -60.03536936 364.26527872 -76.11083984 336.31567383 C-76.6709375 335.34259277 -77.23103516 334.36951172 -77.80810547 333.36694336 C-87.44275084 316.56187708 -96.38295962 299.43269419 -105.15234375 282.1652832 C-106.90039257 278.72436804 -108.66632626 275.29288318 -110.43505859 271.86254883 C-122.11107292 249.07177708 -131.8845696 225.55976296 -140.11083984 201.31567383 C-140.56330078 199.9950293 -140.56330078 199.9950293 -141.02490234 198.64770508 C-141.86118809 196.18781953 -142.67832293 193.72263745 -143.48583984 191.25317383 C-143.71255371 190.57697998 -143.93926758 189.90078613 -144.17285156 189.20410156 C-148.21421272 176.44598964 -149.70069677 163.65360207 -149.61083984 150.31567383 C-149.60907745 149.60666931 -149.60731506 148.89766479 -149.60549927 148.16717529 C-149.36991295 105.26648809 -129.84387715 69.66125765 -100.08325195 39.84716797 C-79.63811378 20.0538517 -53.68562871 8.14449099 -26.11083984 2.31567383 C-25.46244141 2.14430908 -24.81404297 1.97294434 -24.14599609 1.79638672 C-16.16446124 -0.13105074 -8.16173172 -0.02147406 0 0 Z " fill="#D11A22" transform="translate(746.11083984375,361.684326171875)"/>
<path d="M0 0 C0.41886475 0.95890137 0.83772949 1.91780273 1.26928711 2.90576172 C2.82116524 6.45807712 4.37373415 10.01009025 5.92651367 13.56201172 C6.59890333 15.10034052 7.27110476 16.63875161 7.94311523 18.17724609 C8.90819809 20.38660921 9.87395396 22.59567706 10.83984375 24.8046875 C11.14091537 25.49432587 11.441987 26.18396423 11.75218201 26.89450073 C13.3154612 30.47535536 13.3154612 30.47535536 15 34 C14.68378107 43.01223954 11.66749771 51.45944427 9 60 C8.6898999 60.99676758 8.6898999 60.99676758 8.37353516 62.01367188 C7.56820644 64.59957782 6.76036254 67.18465488 5.94628906 69.76782227 C4.24824201 75.16405785 2.61755739 80.57914985 1 86 C-0.79463362 92.01267761 -2.61585839 98.014766 -4.5 104 C-5.10659147 105.93904239 -5.71221355 107.87838437 -6.31738281 109.81787109 C-6.81462184 111.40739985 -7.31430132 112.9961658 -7.81542969 114.58447266 C-8.67732402 117.32451751 -9.52708855 120.06809983 -10.375 122.8125 C-10.78782227 124.1128418 -10.78782227 124.1128418 -11.20898438 125.43945312 C-11.45712891 126.24962891 -11.70527344 127.05980469 -11.9609375 127.89453125 C-12.18571777 128.61487549 -12.41049805 129.33521973 -12.64208984 130.07739258 C-13.19952829 132.2089311 -13.19952829 132.2089311 -12 135 C-9.57708528 136.86678665 -7.15451831 138.6013717 -4.625 140.3125 C-3.06126034 141.39273893 -1.49880639 142.4748409 0.0625 143.55859375 C0.8771875 144.12304199 1.691875 144.68749023 2.53125 145.26904297 C6.52816314 148.07146723 10.45252666 150.96970559 14.375 153.875 C15.55896362 154.75043457 15.55896362 154.75043457 16.7668457 155.64355469 C18.37444776 156.83292278 19.98162483 158.02286551 21.58837891 159.21337891 C25.5762919 162.1677773 29.56850755 165.11632685 33.5625 168.0625 C34.34866699 168.64241699 35.13483398 169.22233398 35.94482422 169.81982422 C42.01189194 174.28799413 48.11545784 178.70382688 54.23071289 183.10571289 C60.4862521 187.61431413 66.69318346 192.18680605 72.89453125 196.76953125 C78.23857821 200.71415511 83.60918549 204.61958115 89 208.5 C97.57350098 214.67348321 106.08152198 220.93317433 114.578125 227.21191406 C117.05020627 229.03706762 119.52471201 230.8588857 122 232.6796875 C122.82032715 233.28361328 123.6406543 233.88753906 124.48583984 234.50976562 C126.10183729 235.69802744 127.71931805 236.884275 129.33837891 238.06835938 C132.82586672 240.62521586 136.2829254 243.19800226 139.6484375 245.9140625 C140.46260132 246.56121216 140.46260132 246.56121216 141.29321289 247.22143555 C142.69209172 248.34112307 144.0753574 249.48024341 145.45703125 250.62109375 C148.89696583 252.48637318 150.23754056 252.03641246 154 251 C156.7124065 249.4579213 159.16970072 247.61550119 161.6640625 245.74609375 C163.18360865 244.64084578 164.70483074 243.53789907 166.22753906 242.43701172 C167.01374634 241.86650085 167.79995361 241.29598999 168.60998535 240.70819092 C172.459345 237.95697716 176.39292594 235.33711902 180.3359375 232.72265625 C181.13683304 232.19039429 181.93772858 231.65813232 182.76289368 231.10974121 C184.43228556 230.00129927 186.10224406 228.89371027 187.7727356 227.78692627 C192.35885893 224.74786862 196.93921514 221.70014411 201.51953125 218.65234375 C202.46515427 218.02324097 203.41077728 217.39413818 204.38505554 216.74597168 C214.64108605 209.91707267 224.85329426 203.02362079 235.0625 196.125 C248.62567032 186.96120696 262.21407827 177.83776927 275.84423828 168.77392578 C287.62458122 160.93865479 299.33917423 153.0124166 311 145 C313.22777065 148.34165598 314.6892376 151.79841055 316.1875 155.5 C316.47302734 156.17675781 316.75855469 156.85351562 317.05273438 157.55078125 C319.11798022 162.64605933 319.11798022 162.64605933 318 166 C315.8848486 167.61005745 313.78986328 169.06870932 311.5625 170.5078125 C310.90025421 170.94508163 310.23800842 171.38235077 309.55569458 171.83287048 C308.12492713 172.77632619 306.69172991 173.7161051 305.25640869 174.65261841 C302.20053319 176.64667864 299.15640242 178.65835344 296.11135864 180.66889954 C294.57037089 181.68602077 293.02876213 182.70220174 291.48654175 183.717453 C285.32582071 187.77425752 279.21342524 191.89793647 273.125 196.0625 C261.77430783 203.80690311 250.39113287 211.50272393 239 219.1875 C238.07565155 219.81122498 237.1513031 220.43494995 236.19894409 221.07757568 C226.61143519 227.54540688 217.01679698 234.0019264 207.38671875 240.40625 C206.26537033 241.15217155 206.26537033 241.15217155 205.12136841 241.91316223 C201.67665025 244.20352652 198.22981221 246.49059586 194.77929688 248.7722168 C178.03632172 259.81162471 178.03632172 259.81162471 162.4375 272.375 C161.31183063 273.36270073 160.18554062 274.34969462 159.05859375 275.3359375 C158.54409668 275.78807617 158.02959961 276.24021484 157.49951172 276.70605469 C155.38215412 278.53314607 153.19865123 280.27219586 151 282 C146.02880816 280.50956818 143.17109414 277.59994878 139.5625 274.0625 C127.03091197 262.13071447 112.96110648 252.17807921 99 242 C98.16162598 241.38672852 97.32325195 240.77345703 96.45947266 240.14160156 C93.99645921 238.34073954 91.5301428 236.54451179 89.0625 234.75 C88.31129883 234.20102051 87.56009766 233.65204102 86.78613281 233.08642578 C86.08456055 232.57837402 85.38298828 232.07032227 84.66015625 231.546875 C84.04793213 231.10182617 83.43570801 230.65677734 82.80493164 230.19824219 C80.93387147 228.95609917 79.02717686 227.96231524 77 227 C76.83757812 228.21042969 76.83757812 228.21042969 76.671875 229.4453125 C75.8634493 233.72244846 74.59550531 237.74114786 73.25 241.875 C72.70418783 243.5767462 72.15861865 245.27857035 71.61328125 246.98046875 C71.20456787 248.24963135 71.20456787 248.24963135 70.78759766 249.54443359 C69.65162703 253.08615479 68.54291734 256.63614718 67.4375 260.1875 C67.03000254 261.49350663 66.62245064 262.79949627 66.21484375 264.10546875 C66.01487793 264.74661621 65.81491211 265.38776367 65.60888672 266.04833984 C64.57384495 269.36595167 63.5368083 272.68293991 62.5 276 C62.08332407 277.33333044 61.6666574 278.66666377 61.25 280 C33.75 368 33.75 368 33.12426758 370.00195312 C32.70974545 371.32868332 32.29551778 372.65550556 31.8815918 373.98242188 C30.8095714 377.41761601 29.73171538 380.85082221 28.64453125 384.28125 C28.42152344 384.98765625 28.19851563 385.6940625 27.96875 386.421875 C27.35181813 388.37549259 26.73262643 390.32839614 26.11328125 392.28125 C24.94986239 396.16747722 23.9549485 400.05811213 23 404 C23.98057373 404.648479 23.98057373 404.648479 24.98095703 405.31005859 C46.48567019 419.54695767 46.48567019 419.54695767 54 425 C60.21785146 429.51099028 66.59675949 433.757101 73 438 C80.48303749 442.95993346 87.87037975 447.99131777 95.140625 453.2578125 C103.59508859 459.32135006 112.28625255 465.05878062 120.8984375 470.89453125 C126.27279901 474.54286986 131.63047625 478.21552257 136.98706055 481.88989258 C138.36978123 482.83761765 139.75584387 483.78049485 141.14599609 484.71728516 C142.34538122 485.54709414 143.52279301 486.41001276 144.67041016 487.31005859 C146.34580944 488.64771417 146.34580944 488.64771417 149 490 C152.43895579 488.94531365 155.28822567 487.31065114 158.2734375 485.33300781 C159.49256836 484.53011322 159.49256836 484.53011322 160.73632812 483.71099854 C161.60708984 483.13090027 162.47785156 482.550802 163.375 481.953125 C164.29474609 481.34547302 165.21449219 480.73782104 166.16210938 480.11175537 C169.1108915 478.16205737 172.05546382 476.20610299 175 474.25 C176.91900212 472.9800626 178.83827058 471.71052758 180.7578125 470.44140625 C181.70544464 469.814086 182.65307678 469.18676575 183.62942505 468.54043579 C185.54357894 467.27360588 187.45851737 466.00796059 189.37423706 464.74349976 C194.24512903 461.52107103 199.08356438 458.26151379 203.87939453 454.92822266 C204.82548584 454.27762878 205.77157715 453.62703491 206.74633789 452.95672607 C208.53941267 451.72169846 210.32417948 450.47448849 212.09887695 449.2131958 C216.81603614 445.98177923 219.94195986 444.14358823 225.875 444.875 C227.93907408 445.51510707 229.98100088 446.22942785 232 447 C234.06985195 447.56924727 236.14943644 448.08515661 238.23291016 448.60205078 C241.17310277 449.34141361 244.08443819 450.16928668 247 451 C242.56479046 454.69879739 237.84325712 457.88697414 233.0546875 461.1015625 C232.17979675 461.69123306 231.30490601 462.28090363 230.40350342 462.88844299 C227.56204608 464.80268282 224.71850157 466.71379843 221.875 468.625 C219.91834159 469.94294387 217.96179912 471.26105986 216.00537109 472.5793457 C207.55758041 478.26819867 199.10395852 483.94759848 190.609375 489.56640625 C189.99968369 489.96976196 189.38999237 490.37311768 188.76182556 490.78869629 C188.17583084 491.17634155 187.58983612 491.56398682 186.98608398 491.96337891 C176.50850895 498.89513372 166.23703455 505.87543522 156.63671875 514 C155.93160156 514.5775 155.22648437 515.155 154.5 515.75 C153.64921875 516.48476562 153.64921875 516.48476562 152.78125 517.234375 C151 518 151 518 148.703125 517.4765625 C145.21872695 515.57323524 142.28002991 513.1624694 139.25 510.625 C131.12381734 503.98004812 122.6456301 497.94585857 114 492 C113.22575684 491.46729492 112.45151367 490.93458984 111.65380859 490.38574219 C106.86481399 487.09532458 102.0662414 483.81909828 97.26513672 480.54638672 C93.83741459 478.20631429 90.41847265 475.85355465 87 473.5 C81.17330893 469.49025774 75.33859294 465.4923906 69.5 461.5 C60.34280941 455.23799601 51.20024488 448.95492923 42.06152344 442.66601562 C31.86012865 435.64647225 21.6452064 428.64692291 11.42333984 421.65722656 C7.44837668 418.93890599 3.47422452 416.21940031 -0.5 413.5 C-2.08332934 412.41666083 -3.66666268 411.3333275 -5.25 410.25 C-52.75 377.75 -52.75 377.75 -55.12866211 376.12207031 C-56.69926086 375.04773096 -58.27038059 373.97415281 -59.84204102 372.90136719 C-63.99998437 370.06171181 -68.14591598 367.2062494 -72.27734375 364.328125 C-73.57285156 363.4299707 -73.57285156 363.4299707 -74.89453125 362.51367188 C-76.55283989 361.36355459 -78.20795623 360.20881663 -79.859375 359.04882812 C-80.60574219 358.53255859 -81.35210938 358.01628906 -82.12109375 357.484375 C-82.7752124 357.02772461 -83.42933105 356.57107422 -84.10327148 356.10058594 C-88.05257913 353.80898099 -90.67045351 353.91749244 -95.04296875 355.0390625 C-96.51685059 355.41140015 -96.51685059 355.41140015 -98.02050781 355.79125977 C-99.58816895 356.20396118 -99.58816895 356.20396118 -101.1875 356.625 C-102.26741211 356.90206787 -103.34732422 357.17913574 -104.45996094 357.46459961 C-111.27207633 359.23038494 -118.03284996 361.13119137 -124.76635742 363.17431641 C-130.13789289 364.79023341 -135.55152499 366.16882966 -141 367.5 C-147.84060647 369.17256766 -154.5965504 371.00911416 -161.33569336 373.05029297 C-168.4963091 375.19722071 -175.73317726 377.03986512 -182.98364258 378.85717773 C-188.49380194 380.25980741 -193.69473447 381.96166114 -199 384 C-201.09322069 384.60195577 -203.19707751 385.1689334 -205.3125 385.6875 C-206.31925781 385.93886719 -207.32601563 386.19023438 -208.36328125 386.44921875 C-211 387 -211 387 -214 387 C-213.40204693 382.0893018 -212.39565434 377.56120509 -210.94628906 372.83398438 C-210.73959595 372.1547995 -210.53290283 371.47561462 -210.31994629 370.77584839 C-209.6402037 368.54690818 -208.95304855 366.32033214 -208.265625 364.09375 C-207.78538503 362.52555434 -207.30555419 360.95723334 -206.82611084 359.38879395 C-205.82052195 356.10293699 -204.81152778 352.818153 -203.79980469 349.53417969 C-202.51644607 345.36831519 -201.23915183 341.20062526 -199.96417618 337.03218842 C-198.97224844 333.79018416 -197.97820681 330.54883125 -196.98345184 327.30769348 C-196.51273945 325.77393965 -196.04237505 324.24007896 -195.57239532 322.70610046 C-193.24417417 315.11397577 -190.87186162 307.54389093 -188.33666992 300.01806641 C-186.52429598 294.62530913 -184.85382927 289.22702275 -183.34765625 283.7421875 C-179.40099928 269.68292186 -175.10814037 255.72695574 -170.84985352 241.75976562 C-169.66860865 237.88509025 -168.49080466 234.00937868 -167.31396389 230.13336372 C-166.38962329 227.09046829 -165.46336744 224.04815829 -164.53657722 221.00600815 C-164.10190675 219.57838839 -163.6678132 218.15059282 -163.23437309 216.72259903 C-160.6398634 208.17899401 -157.93222983 199.68571675 -155.07089233 191.22746277 C-153.64014835 186.9154766 -152.3920574 182.56700323 -151.1875 178.1875 C-149.02063246 170.44148041 -146.7185821 162.74465804 -144.3359375 155.0625 C-141.45052382 145.721489 -138.58493257 136.37480573 -135.74609375 127.01953125 C-135.39195908 125.85250168 -135.0378244 124.68547211 -134.67295837 123.483078 C-133.59409331 119.92633346 -132.51576284 116.36942716 -131.4375 112.8125 C-129.99887633 108.06895629 -128.55999392 103.32549109 -127.12109375 98.58203125 C-126.77289581 97.43406067 -126.42469788 96.28609009 -126.06594849 95.10333252 C-121.31372007 79.43789271 -116.55867301 63.77322343 -111.75 48.125 C-111.42515625 47.06410156 -111.1003125 46.00320313 -110.765625 44.91015625 C-110.13826501 42.86870659 -109.49972026 40.83064689 -108.84790039 38.796875 C-107.9719257 36.04535257 -107.9719257 36.04535257 -107.43139648 33.359375 C-106.07485462 27.67328513 -106.07485462 27.67328513 -103.12060547 25.82275391 C-100.61785147 24.91213119 -98.16727231 24.30456443 -95.5625 23.75 C-94.15774414 23.40098633 -94.15774414 23.40098633 -92.72460938 23.04492188 C-89.82330835 22.32982619 -86.91320021 21.66468385 -84 21 C-81.47859946 20.38205136 -78.9613087 19.74924361 -76.4440918 19.11450195 C-74.80229229 18.70171508 -73.15919156 18.29407256 -71.51489258 17.89135742 C-65.54822427 16.4254816 -59.64782996 14.7829315 -53.75 13.0625 C-45.0712034 10.5346477 -36.34223635 8.28013762 -27.56445312 6.12280273 C-20.61848326 4.4153467 -13.71433325 2.59786071 -6.828125 0.6640625 C-4 0 -4 0 0 0 Z " fill="#325FA0" transform="translate(600,599)"/>
<path d="M0 0 C1.010625 0.83789062 2.02125 1.67578125 3.0625 2.5390625 C4.21434082 3.47098539 5.3680465 4.40060724 6.5234375 5.328125 C7.40467285 6.04210449 7.40467285 6.04210449 8.30371094 6.77050781 C11.02358507 8.92556633 13.84859541 10.91999153 16.6875 12.9140625 C22.27950059 16.86809002 27.80600527 20.90436421 33.3125 24.9765625 C39.53570602 29.57702738 45.7811448 34.14331165 52.0625 38.6640625 C58.52495992 43.31789387 64.96098317 48.00616212 71.375 52.7265625 C72.16970703 53.31050781 72.96441406 53.89445313 73.78320312 54.49609375 C77.60490327 57.31381582 81.38324537 60.16043946 85.0625 63.1640625 C82.8990877 72.40574311 80.18167632 81.43023559 77.29296875 90.46484375 C76.8187305 91.95803069 76.34487971 93.45134073 75.87138367 94.94476318 C74.86083344 98.13028261 73.84831124 101.31516504 72.83416748 104.49954224 C70.12601927 113.00448748 67.4320952 121.51394343 64.73828125 130.0234375 C64.46239166 130.89461275 64.18650208 131.765788 63.9022522 132.6633625 C56.90052889 154.77832211 50.04200705 176.93726358 43.19604492 199.10083008 C42.54565466 201.20635153 41.89525574 203.31187031 41.24482536 205.41737938 C40.83055825 206.75847793 40.41634834 208.09959416 40.00219917 209.44072914 C36.73201129 220.0289322 33.42296659 230.60417444 30.0625 241.1640625 C26.50149248 239.85710116 23.54732867 238.29873244 20.4296875 236.14453125 C19.55070801 235.54092773 18.67172852 234.93732422 17.76611328 234.31542969 C16.36594971 233.34331543 16.36594971 233.34331543 14.9375 232.3515625 C13.96409668 231.68157227 12.99069336 231.01158203 11.98779297 230.32128906 C9.98083784 228.93981483 7.97514542 227.55650441 5.97070312 226.17138672 C2.50218288 223.77731574 -0.97667336 221.3986716 -4.45727539 219.0222168 C-12.95645251 213.21895364 -21.43738853 207.38911082 -29.91552734 201.55517578 C-33.58882076 199.02795701 -37.26324495 196.50238287 -40.9375 193.9765625 C-42.2916712 193.04557952 -43.64583831 192.11459058 -45 191.18359375 C-46.4540625 190.18392578 -46.4540625 190.18392578 -47.9375 189.1640625 C-47.38797132 183.39077887 -46.20146876 178.42078352 -44.25 172.9765625 C-41.90104157 166.19773224 -39.80329081 159.3866375 -37.875 152.4765625 C-35.79306971 145.03449434 -33.53472805 137.69602385 -31.015625 130.390625 C-29.88365951 127.00293118 -28.89556373 123.60438225 -27.9375 120.1640625 C-23.9453154 123.91972629 -20.84415867 127.90155273 -17.75 132.4140625 C-14.95769964 136.93982713 -14.95769964 136.93982713 -10.9375 140.1640625 C-10.82792969 139.55820312 -10.71835937 138.95234375 -10.60546875 138.328125 C-9.57030878 132.85776745 -8.23577532 127.65762196 -6.42578125 122.390625 C-5.7054523 119.10592501 -6.40498437 117.03402759 -8.14916992 114.18457031 C-8.65037354 113.50233398 -9.15157715 112.82009766 -9.66796875 112.1171875 C-10.22419922 111.3540625 -10.78042969 110.5909375 -11.35351562 109.8046875 C-12.23040039 108.62132812 -12.23040039 108.62132812 -13.125 107.4140625 C-13.69025391 106.640625 -14.25550781 105.8671875 -14.83789062 105.0703125 C-17.09887872 101.98314433 -19.36694968 98.90500413 -21.70166016 95.87304688 C-22.5241626 94.80280273 -22.5241626 94.80280273 -23.36328125 93.7109375 C-23.85868408 93.07510742 -24.35408691 92.43927734 -24.86450195 91.78417969 C-25.9375 90.1640625 -25.9375 90.1640625 -25.9375 88.1640625 C-31.24762861 87.90636758 -35.11841611 88.65846469 -40.078125 90.53515625 C-40.72698669 90.77694107 -41.37584839 91.01872589 -42.04437256 91.26783752 C-44.09627474 92.0350986 -46.14181415 92.8178978 -48.1875 93.6015625 C-49.57512169 94.12410803 -50.96313973 94.64560233 -52.3515625 95.16601562 C-54.8883549 96.11774353 -57.42195072 97.07663783 -59.95410156 98.04077148 C-61.93468936 98.78649034 -63.92977936 99.49482229 -65.9375 100.1640625 C-66.86868619 102.61738098 -66.86868619 102.61738098 -67.4375 105.6015625 C-68.66763218 111.21770167 -70.24411608 116.67358025 -71.9375 122.1640625 C-71.00683716 121.80054688 -71.00683716 121.80054688 -70.05737305 121.4296875 C-67.24857961 120.33593287 -64.43685556 119.24991931 -61.625 118.1640625 C-60.64853516 117.7825 -59.67207031 117.4009375 -58.66601562 117.0078125 C-57.72822266 116.646875 -56.79042969 116.2859375 -55.82421875 115.9140625 C-54.52810669 115.41132812 -54.52810669 115.41132812 -53.20581055 114.8984375 C-50.9375 114.1640625 -50.9375 114.1640625 -47.9375 114.1640625 C-49.32308217 124.95729531 -52.6836202 135.35846678 -55.72613811 145.78312206 C-56.7906966 149.43289694 -57.8314106 153.08603744 -58.81860352 156.75756836 C-59.7793675 160.32869799 -60.79726765 163.87877675 -61.85669899 167.42183876 C-62.24814259 168.76637295 -62.61941434 170.11696337 -62.96912193 171.47295189 C-64.09445091 175.79917554 -65.30844345 179.52590273 -67.9375 183.1640625 C-72.48217527 185.50871684 -76.92190268 186.35912795 -81.9375 187.1640625 C-83.99071267 187.69889142 -86.03901786 188.25352787 -88.078125 188.83984375 C-90.11430215 189.38646517 -92.15076851 189.93201023 -94.1875 190.4765625 C-95.29375732 190.77361084 -96.40001465 191.07065918 -97.53979492 191.37670898 C-102.13276608 192.60987162 -106.72644418 193.84036855 -111.32080078 195.06835938 C-114.63088711 195.95311414 -117.94055592 196.83940859 -121.25 197.7265625 C-122.31847168 198.01257324 -123.38694336 198.29858398 -124.48779297 198.59326172 C-132.50434411 200.75019779 -140.48794575 203.01156055 -148.44262695 205.38696289 C-149.64278442 205.7387561 -149.64278442 205.7387561 -150.8671875 206.09765625 C-151.90721924 206.4078772 -151.90721924 206.4078772 -152.96826172 206.72436523 C-154.9375 207.1640625 -154.9375 207.1640625 -158.9375 207.1640625 C-156.15239889 195.20850651 -152.45101284 183.58822082 -148.5 171.9765625 C-146.15669338 165.02010054 -144.15148229 157.98947638 -142.16821289 150.9230957 C-140.71637266 145.78513499 -139.16569831 140.71571911 -137.4375 135.6640625 C-135.1615775 128.99575454 -133.21662802 122.26108655 -131.30639648 115.47998047 C-128.6190903 105.96764815 -125.72864096 96.52053271 -122.82861328 87.07128906 C-121.35730443 82.27119432 -119.89798151 77.46746025 -118.4375 72.6640625 C-117.85812473 70.7604009 -117.27869754 68.85675509 -116.69921875 66.953125 C-115.18497155 61.97786226 -113.67136561 57.00240525 -112.15966797 52.02636719 C-111.5609212 50.06011237 -110.95974809 48.09459451 -110.35595703 46.12988281 C-109.11255369 42.07840729 -107.88356626 38.03094111 -106.78515625 33.9375 C-106.46417969 32.77476562 -106.14320313 31.61203125 -105.8125 30.4140625 C-105.43738281 28.96773437 -105.43738281 28.96773437 -105.0546875 27.4921875 C-103.57416751 24.40690808 -101.94406712 23.74040109 -98.9375 22.1640625 C-96.38891602 21.33618164 -96.38891602 21.33618164 -93.69140625 20.69921875 C-92.69657227 20.45872803 -91.70173828 20.2182373 -90.67675781 19.97045898 C-89.62842773 19.72497314 -88.58009766 19.4794873 -87.5 19.2265625 C-85.31857782 18.69970458 -83.13758408 18.17106946 -80.95703125 17.640625 C-79.38816162 17.26019043 -79.38816162 17.26019043 -77.78759766 16.87207031 C-74.39221672 16.0286058 -71.04336307 15.09023593 -67.6875 14.1015625 C-62.19996906 12.48797503 -56.67892145 11.08794609 -51.125 9.7265625 C-44.74507594 8.15916171 -38.41891281 6.48552394 -32.125 4.6015625 C-26.6783273 2.97433548 -21.23048198 1.36184573 -15.75 -0.1484375 C-14.58082031 -0.47457031 -13.41164063 -0.80070313 -12.20703125 -1.13671875 C-7.27625213 -2.19121034 -4.39669861 -2.74793663 0 0 Z " fill="#FEFEFE" transform="translate(574.9375,748.8359375)"/>
<path d="M0 0 C1.62726176 1.45372071 3.23356019 2.93143433 4.8125 4.4375 C5.53566406 5.09492188 6.25882813 5.75234375 7.00390625 6.4296875 C22.64151868 21.20678615 29.64663379 40.23846853 30.38671875 61.35327148 C30.57030347 74.08504826 29.1609349 84.8601907 23.8125 96.4375 C23.11060547 97.99791016 23.11060547 97.99791016 22.39453125 99.58984375 C18.86377837 106.64145944 14.0152593 112.55210916 8.8125 118.4375 C8.27109375 119.07429687 7.7296875 119.71109375 7.171875 120.3671875 C-4.24680769 132.88160236 -22.74352504 141.47063192 -39.46337891 142.6730957 C-67.35970543 143.74781882 -67.35970543 143.74781882 -80.1875 137.4375 C-81.31800781 136.90640625 -82.44851563 136.3753125 -83.61328125 135.828125 C-90.85771805 132.18501722 -97.13287425 127.81359011 -103.1875 122.4375 C-104.21617187 121.54998047 -104.21617187 121.54998047 -105.265625 120.64453125 C-119.13166005 107.84301464 -127.7897669 88.27156716 -128.69140625 69.5546875 C-129.14399189 45.22155379 -124.57372078 26.75682821 -107.45703125 8.70703125 C-96.28788851 -2.46211149 -84.4262789 -10.03848751 -69.1875 -14.5625 C-68.383125 -14.80871094 -67.57875 -15.05492187 -66.75 -15.30859375 C-44.01491891 -21.03183465 -18.10675148 -14.49042386 0 0 Z " fill="#FEFEFE" transform="translate(799.1875,450.5625)"/>
<path d="M0 0 C6.17721134 0.73128546 12.10002416 2.16096016 18.125 3.6875 C19.18106445 3.95296631 20.23712891 4.21843262 21.32519531 4.49194336 C29.04358713 6.45274775 36.69980096 8.5896441 44.34423828 10.8190918 C51.01526466 12.75317133 57.72579944 14.45677095 64.47265625 16.10351562 C71.41632779 17.81482995 78.28613954 19.74445964 85.14453125 21.76953125 C85.93730469 22.0015625 86.73007812 22.23359375 87.546875 22.47265625 C88.3321608 22.71597183 89.11744659 22.95928741 89.92652893 23.2099762 C93.0957323 24.09371912 93.0957323 24.09371912 96.8143158 24.47813416 C101.10465906 25.07838926 105.21262107 25.803789 109 28 C112.51488536 32.76157661 113.75880031 37.85882746 115.20703125 43.53125 C115.66745467 45.12256381 116.13404112 46.7121057 116.60636902 48.29992676 C117.83802443 52.49906983 118.98716962 56.71654397 120.11938477 60.94342041 C121.24609082 65.09931478 122.44403048 69.23431863 123.63867188 73.37109375 C125.29346789 79.12431457 126.92436125 84.88329282 128.52529716 90.6517334 C131.88239975 102.73768612 135.51217683 114.73195611 139.21870422 126.71472168 C139.53807906 127.74737026 139.53807906 127.74737026 139.86390591 128.80088043 C140.28404361 130.15924487 140.7044779 131.51751761 141.12522221 132.87569427 C142.67456868 137.89521868 144.16133033 142.93155985 145.63208008 147.97460938 C147.08198634 152.94338123 148.58209295 157.88203346 150.25738525 162.77978516 C151.96364278 167.88102818 153.48804126 173.04208037 155.0546875 178.1875 C155.4381131 179.44401367 155.8215387 180.70052734 156.21658325 181.99511719 C157.02582267 184.64739958 157.83426093 187.29992438 158.64208984 189.95263672 C159.66155012 193.30014382 160.68278416 196.64710648 161.70457077 199.99390411 C165.34332709 211.91430629 168.97998492 223.83445819 172.47164917 235.7989502 C173.9103565 240.72301391 175.42462379 245.61816558 177 250.5 C178.85586419 256.25102102 180.60174326 262.02915855 182.29492188 267.83007812 C184.55211562 275.53140357 186.88607815 283.20661153 189.26493835 290.87112427 C189.93157812 293.01910996 190.59663004 295.16758236 191.26135254 297.31616211 C192.67291864 301.87784961 194.08630616 306.43897151 195.5 311 C197.14269258 316.29985166 198.7845632 321.59995532 200.42448425 326.90066528 C201.06868117 328.98152371 201.71428692 331.0619411 202.35998535 333.14233398 C204.72746894 340.78501838 207.03359928 348.44330517 209.27522278 356.12391663 C211.55841036 363.94437312 213.98226669 371.72032657 216.40039062 379.5 C216.73876953 380.593125 217.07714844 381.68625 217.42578125 382.8125 C217.72911377 383.78832031 218.03244629 384.76414062 218.3449707 385.76953125 C219 388 219 388 219 389 C210.2653289 388.39760889 200.37627273 386.91751516 193 382 C191.07647606 381.4244364 189.13238557 380.91632476 187.1796875 380.44921875 C186.01373047 380.165625 184.84777344 379.88203125 183.64648438 379.58984375 C182.40189453 379.29207031 181.15730469 378.99429687 179.875 378.6875 C164.01325859 374.81605126 164.01325859 374.81605126 156.5 372.5 C147.8630269 369.8491902 139.09411947 367.75095585 130.32250977 365.59692383 C123.64128566 363.94530892 117.02146645 362.19075224 110.4375 360.1875 C109.12147137 359.80079589 107.80508569 359.41530401 106.48828125 359.03125 C104.2869852 358.38047491 102.09481988 357.69712604 99.91796875 356.96875 C97.03226236 356.1615594 94.9894951 355.80159646 92 356 C89.3311856 357.49184516 89.3311856 357.49184516 86.76953125 359.6015625 C81.82695391 363.3744625 76.79135739 366.82800331 71.5625 370.1875 C69.56955002 371.47798991 67.57744414 372.76978383 65.5859375 374.0625 C65.02740585 374.42494308 64.46887421 374.78738617 63.89341736 375.16081238 C55.43840158 380.65483553 47.02524972 386.21288566 38.60690308 391.7628479 C35.75921403 393.64022165 32.91099087 395.51678302 30.06274414 397.39331055 C28.69601814 398.29452385 28.69601814 398.29452385 27.30168152 399.21394348 C25.49504102 400.40476949 23.68760637 401.59439162 21.87934875 402.78276062 C17.50193774 405.66459741 13.14806017 408.57352998 8.83251953 411.54736328 C8.01483597 412.10647903 7.1971524 412.66559479 6.35469055 413.24165344 C4.82321792 414.29112473 3.29768401 415.34933801 1.77946472 416.41789246 C-2.0139661 419.00785684 -4.73275073 420.71379101 -9.5 420.5 C-11.34905136 420.06168484 -13.18095764 419.54972357 -15 419 C-16.55338343 418.65346808 -18.10970961 418.31999634 -19.66796875 417.99609375 C-24.12908961 417.06350374 -28.56486874 416.04901344 -33 415 C-30.92517408 412.8071615 -28.82868692 411.10568031 -26.30273438 409.45751953 C-25.55925247 408.96967484 -24.81577057 408.48183014 -24.04975891 407.97920227 C-23.23927597 407.45239365 -22.42879303 406.92558502 -21.59375 406.3828125 C-20.73762619 405.82180344 -19.88150238 405.26079437 -18.99943542 404.68278503 C-17.14168427 403.46547787 -15.282977 402.24962891 -13.4234314 401.0350647 C-8.43911891 397.77849458 -3.46313126 394.50928294 1.51171875 391.23828125 C2.5395195 390.56252548 3.56732025 389.88676971 4.62626648 389.1905365 C17.36113026 380.80459846 29.99234638 372.26570685 42.62109375 363.72119141 C43.88885147 362.86400513 43.88885147 362.86400513 45.18222046 361.98950195 C46.82018831 360.8802167 48.45649515 359.76847408 50.0909729 358.65405273 C53.86193025 356.08839898 57.64930493 353.57311467 61.52099609 351.16162109 C62.5744648 350.49491646 62.5744648 350.49491646 63.6492157 349.81474304 C64.95007068 348.99523026 66.26045892 348.19056584 67.5818634 347.40461731 C70.55616544 345.51631678 71.86905595 344.40797307 72.96069336 341.00683594 C72.99789841 338.1607653 72.77081014 336.06029417 71.9609375 333.34765625 C71.7124707 332.49606934 71.46400391 331.64448242 71.20800781 330.76708984 C70.93311523 329.8745752 70.65822266 328.98206055 70.375 328.0625 C69.96266113 326.6695874 69.96266113 326.6695874 69.54199219 325.24853516 C67.89680336 319.74844308 66.11988166 314.30216514 64.25 308.875 C62.22635395 302.97324126 60.86029361 297.17613771 60 291 C62.58122508 290.15960114 65.16463901 289.32749444 67.75 288.5 C68.47960937 288.26152344 69.20921875 288.02304687 69.9609375 287.77734375 C70.66992188 287.55175781 71.37890625 287.32617188 72.109375 287.09375 C72.75874023 286.88427734 73.40810547 286.67480469 74.07714844 286.45898438 C76 286 76 286 80 286 C80.35304199 287.15000488 80.70608398 288.30000977 81.06982422 289.48486328 C82.38485782 293.76779999 83.70083426 298.05044651 85.01708984 302.33300781 C85.585705 304.18351518 86.15406739 306.03410022 86.72216797 307.88476562 C87.5406696 310.55098809 88.36009181 313.21692617 89.1796875 315.8828125 C89.43185028 316.70492218 89.68401306 317.52703186 89.94381714 318.37405396 C90.62389074 320.58440014 91.3104615 322.79259117 92 325 C92.34691895 326.11616699 92.69383789 327.23233398 93.05126953 328.38232422 C93.94735269 331.17885103 93.94735269 331.17885103 96 334 C98.05122555 334.86900353 98.05122555 334.86900353 100.48828125 335.39453125 C101.87309692 335.73979858 101.87309692 335.73979858 103.28588867 336.09204102 C104.28467041 336.32979248 105.28345215 336.56754395 106.3125 336.8125 C108.41982252 337.33632722 110.52658361 337.86241763 112.6328125 338.390625 C113.70047852 338.65681641 114.76814453 338.92300781 115.86816406 339.19726562 C120.50438417 340.38559519 125.09463868 341.71789801 129.6875 343.0625 C137.23664787 345.25669885 144.81624603 347.23373161 152.45263672 349.09912109 C161.29485807 351.27946682 170.03386316 353.80471068 178.77587891 356.35302734 C181.84743803 357.24651051 184.92342954 358.12394552 188 359 C187.67128906 358.17435547 187.67128906 358.17435547 187.3359375 357.33203125 C184.53668113 349.9925176 182.39917675 342.52211175 180.28271484 334.96606445 C178.81473119 329.75817386 177.25325406 324.61882536 175.5 319.5 C173.15724738 312.65195388 171.18569656 305.72517252 169.23046875 298.7578125 C167.77856497 293.62030683 166.22806322 288.55126173 164.5 283.5 C162.15724738 276.65195388 160.18569656 269.72517252 158.23046875 262.7578125 C156.77856497 257.62030683 155.22806322 252.55126173 153.5 247.5 C151.15724738 240.65195388 149.18569656 233.72517252 147.23046875 226.7578125 C145.43905706 220.41897113 143.42569698 214.20519216 141.29296875 207.97265625 C139.34242367 202.12102102 137.7171083 196.16891007 136.0546875 190.23046875 C135.58490882 188.55450156 135.10443625 186.88148236 134.61157227 185.2121582 C134 183 134 183 133.390625 179.5390625 C131.74593419 176.5361158 131.19264997 176.43735678 128.02734375 175.49609375 C126.33606675 175.11847416 124.63876434 174.76721824 122.9375 174.4375 C121.09695265 174.03182499 119.25711444 173.62292035 117.41796875 173.2109375 C116.03810791 172.91074707 116.03810791 172.91074707 114.63037109 172.60449219 C110.94800983 171.7582395 107.35742154 170.68008638 103.75 169.5625 C95.78102781 167.1420223 87.72384914 165.12389322 79.63574219 163.14282227 C77.71287151 162.67146399 75.79167278 162.19322621 73.87231445 161.70776367 C71.89955555 161.22165844 69.91796345 160.7704771 67.93041992 160.34887695 C60.51384646 158.65047615 60.51384646 158.65047615 57.97265625 155.43359375 C57.52212891 153.95052734 57.52212891 153.95052734 57.0625 152.4375 C56.70929688 151.37660156 56.35609375 150.31570313 55.9921875 149.22265625 C55.50105469 147.62744141 55.50105469 147.62744141 55 146 C54.24536918 144.11842051 53.47589612 142.24268321 52.6875 140.375 C51 136.25296443 51 136.25296443 51 134 C56.78589628 134.8321509 62.40021273 136.26461111 68.0625 137.6875 C69.12525146 137.95369141 70.18800293 138.21988281 71.28295898 138.49414062 C78.92908415 140.42943621 86.51519067 142.52925116 94.08691406 144.7355957 C104.33314472 147.70856989 114.66581282 150.35224588 125 153 C124.78907715 152.38294189 124.5781543 151.76588379 124.36083984 151.13012695 C120.31770793 139.26069384 116.44406538 127.38641515 113.07958984 115.3059082 C111.34369516 109.10248089 109.3665676 103.03304376 107.28125 96.9375 C105.3953321 91.27974631 103.84716589 85.52051915 102.23706055 79.77978516 C100.38059766 73.2081821 98.33995953 66.74057521 96.03515625 60.3125 C95 57 95 57 94.62109375 53.8125 C94.21581919 50.60443193 93.83253704 48.67616023 92 46 C87.39875326 43.67922098 82.70542101 42.62969093 77.68212891 41.57568359 C73.79341412 40.74102225 69.94611215 39.75544873 66.09057617 38.78051758 C64.01810311 38.25711949 61.94400988 37.74009817 59.8684082 37.22924805 C53.35485358 35.62468319 46.92765292 33.84830295 40.51171875 31.89453125 C33.37780133 29.75299199 26.14839176 28.01739374 18.91601562 26.24365234 C10.19478955 24.08855168 1.58659731 21.63664537 -7 19 C-4.94235079 12.54646385 -2.57616518 6.2638737 0 0 Z " fill="#325FA0" transform="translate(900,598)"/>
<path d="M0 0 C0.65300079 0.02406921 1.30600159 0.04813843 1.97879028 0.07293701 C4.07267768 0.15394653 6.16489204 0.25661058 8.2578125 0.359375 C9.62755028 0.41412563 10.99734281 0.46752425 12.3671875 0.51953125 C16.37478889 0.67853545 20.37798216 0.89138423 24.3828125 1.109375 C25.61418945 1.16416016 26.84556641 1.21894531 28.11425781 1.27539062 C29.25733398 1.33919922 30.40041016 1.40300781 31.578125 1.46875 C33.08270264 1.54561035 33.08270264 1.54561035 34.61767578 1.62402344 C37.79757734 2.18217674 39.77458428 3.23006117 42.3828125 5.109375 C43.80323071 7.95021141 43.69733522 9.96414778 43.3828125 13.109375 C41.5157134 15.41213056 40.02633509 16.78761371 37.3828125 18.109375 C36.00733094 18.19246138 34.62795454 18.21673516 33.25 18.20703125 C32.44433594 18.20380859 31.63867188 18.20058594 30.80859375 18.19726562 C29.96683594 18.18888672 29.12507812 18.18050781 28.2578125 18.171875 C27.40832031 18.16736328 26.55882812 18.16285156 25.68359375 18.15820312 C23.58330341 18.14640374 21.4830492 18.12846806 19.3828125 18.109375 C20.29160156 19.14771484 20.29160156 19.14771484 21.21875 20.20703125 C34.97470484 36.2697539 47.70765679 54.88277472 51.3828125 76.109375 C51.6096875 77.223125 51.8365625 78.336875 52.0703125 79.484375 C54.56698338 108.44575722 44.08070575 133.65884262 25.66113281 155.59765625 C25.02836426 156.34595703 25.02836426 156.34595703 24.3828125 157.109375 C23.65835938 157.975625 22.93390625 158.841875 22.1875 159.734375 C18.55482576 163.95112627 14.73696593 167.72879576 10.484375 171.31640625 C8.22083196 173.24757029 6.05996868 175.26898873 3.8828125 177.296875 C-23.06453908 201.56187152 -56.49193497 219.25609197 -88.765625 235.20410156 C-123.645503 250.9962333 -123.645503 250.9962333 -147.6171875 279.109375 C-148.56456703 285.76563895 -147.19763308 291.05991172 -143.57421875 296.74609375 C-135.15508135 307.85935512 -120.99960784 314.47357682 -108.6171875 320.109375 C-107.85083984 320.46354492 -107.08449219 320.81771484 -106.29492188 321.18261719 C-84.86616672 331.01208261 -62.33972881 337.95580227 -39.6171875 344.109375 C-38.75335449 344.34720703 -37.88952148 344.58503906 -36.99951172 344.83007812 C-20.9637006 349.2331015 -4.76630332 352.82472352 11.49365234 356.28222656 C15.20385766 357.0713148 18.91248875 357.86749413 22.62109375 358.6640625 C24.79149802 359.12579343 26.9620612 359.5867783 29.1328125 360.046875 C30.12015381 360.25836182 31.10749512 360.46984863 32.12475586 360.68774414 C33.0297583 360.87715576 33.93476074 361.06656738 34.8671875 361.26171875 C36.03846191 361.5090979 36.03846191 361.5090979 37.23339844 361.76147461 C39.67801651 362.21589422 39.67801651 362.21589422 43.3828125 362.109375 C44.35379752 360.70312083 45.31480256 359.28800374 46.203125 357.828125 C50.203103 352.00034249 56.62093744 347.91730836 63.3828125 346.109375 C73.3119669 345.01297954 82.62819238 346.26447491 90.68359375 352.4609375 C97.46545794 359.04012529 101.33371411 366.34302613 101.8203125 375.734375 C101.68112393 383.71783378 99.07504423 390.76227609 94.0703125 396.984375 C93.1834375 397.685625 92.2965625 398.386875 91.3828125 399.109375 C90.74988281 399.62113281 90.11695313 400.13289063 89.46484375 400.66015625 C81.32920008 407.05571853 74.71042157 408.00104835 64.3828125 407.109375 C55.66735871 405.11829322 49.46823195 400.00674694 44.0078125 393.109375 C41.37227848 388.24377373 40.04677098 383.65406002 40.3828125 378.109375 C39.22265625 378.00882813 38.0625 377.90828125 36.8671875 377.8046875 C29.70687672 377.00382655 22.67906626 375.45387792 15.6328125 373.984375 C14.52015015 373.75394501 14.52015015 373.75394501 13.38500977 373.51885986 C-6.84699795 369.32036645 -27.0466253 364.74069151 -46.87792969 358.91259766 C-48.96014434 358.30203739 -51.04452859 357.69887059 -53.12988281 357.09912109 C-85.64672688 347.7395183 -119.76666699 337.43509705 -146.6171875 316.109375 C-147.79474609 315.22185547 -147.79474609 315.22185547 -148.99609375 314.31640625 C-157.01467102 307.91067374 -162.80013633 298.76147304 -164.05859375 288.515625 C-164.45978794 275.57387697 -160.75149376 266.24537044 -151.93188477 256.7109375 C-144.33795399 248.95723474 -135.8327979 242.78334789 -126.6171875 237.109375 C-125.87210938 236.64885742 -125.12703125 236.18833984 -124.359375 235.71386719 C-112.6865694 228.59404136 -100.55608509 222.58417015 -88.2281189 216.71261597 C-75.69071144 210.73287985 -63.54087889 204.24730558 -51.6171875 197.109375 C-50.78832031 196.61373047 -49.95945312 196.11808594 -49.10546875 195.60742188 C-31.51654655 184.9953456 -14.77709203 172.99663072 0.3828125 159.109375 C0.90423828 158.63322754 1.42566406 158.15708008 1.96289062 157.66650391 C18.46682354 142.39675121 34.29577821 120.95229536 35.72265625 97.76171875 C36.53699811 73.69740141 27.72193156 53.30916578 12.3828125 35.109375 C12.54394531 35.86089844 12.70507812 36.61242187 12.87109375 37.38671875 C13.64550912 41.50708146 13.9388125 45.39504166 12.6328125 49.421875 C11.02437684 51.59326313 9.97716667 52.31665567 7.3828125 53.109375 C2.13816561 52.89530778 2.13816561 52.89530778 -0.19116211 50.47167969 C-1.97752026 47.51246012 -2.61715248 44.81108328 -3.37109375 41.4375 C-3.59066994 40.47562775 -3.59066994 40.47562775 -3.81468201 39.49432373 C-4.27899867 37.4513118 -4.72966751 35.4055785 -5.1796875 33.359375 C-5.48539952 31.99979086 -5.79203164 30.64041327 -6.09960938 29.28125 C-6.68602088 26.68946252 -7.26654011 24.09662115 -7.84350586 21.50268555 C-8.46350996 18.78339336 -9.12890597 16.089758 -9.84375 13.39453125 C-10.74498094 9.5665756 -10.586057 6.91032458 -9.6171875 3.109375 C-7.07122919 -0.6795007 -4.29845177 -0.18350217 0 0 Z " fill="#D11D25" transform="translate(897.6171875,678.890625)"/>
<path d="M0 0 C-1.98603788 7.44676697 -4.12482355 14.83161014 -6.3984375 22.1953125 C-6.71527496 23.22703583 -7.03211243 24.25875916 -7.35855103 25.32174683 C-8.36240892 28.59000013 -9.36851457 31.85755501 -10.375 35.125 C-17.86610652 58.9033187 -17.86610652 58.9033187 -24.5093689 82.92510986 C-25.30387224 86.06368717 -26.15945157 89.18598946 -27 92.3125 C-27.29777344 93.58544922 -27.59554687 94.85839844 -27.90234375 96.16992188 C-30.39446958 105.06163877 -30.39446958 105.06163877 -34.77368164 107.62109375 C-38.16967086 108.68674139 -41.49690157 109.37859315 -45 110 C-47.06645546 110.55095827 -49.12796613 111.12086269 -51.18359375 111.7109375 C-53.26761176 112.26794018 -55.35226575 112.82256794 -57.4375 113.375 C-59.72405181 113.98532701 -62.01050867 114.59600982 -64.296875 115.20703125 C-65.42544922 115.50818848 -66.55402344 115.8093457 -67.71679688 116.11962891 C-71.65009757 117.17431974 -75.57791581 118.24818093 -79.50488281 119.32617188 C-88.22105139 121.71859674 -96.94792882 124.06949414 -105.6875 126.375 C-106.67451904 126.63804932 -107.66153809 126.90109863 -108.6784668 127.17211914 C-109.59281494 127.4118042 -110.50716309 127.65148926 -111.44921875 127.8984375 C-112.25705811 128.11161621 -113.06489746 128.32479492 -113.8972168 128.54443359 C-116 129 -116 129 -119 129 C-118.63762861 123.08126722 -117.08440187 117.98021262 -115.14526367 112.38842773 C-113.28426413 106.97383944 -111.67181659 101.51194638 -110.125 96 C-107.19652778 85.59975631 -104.07011843 75.26675683 -100.89990234 64.93798828 C-99.68294852 60.96489488 -98.47550568 56.98897662 -97.2746582 53.01098633 C-96.67953535 51.06056606 -96.07276447 49.11365828 -95.45385742 47.1706543 C-94.09051355 42.85881323 -92.87835171 38.68457781 -92.1875 34.2109375 C-91.42554113 29.80323071 -90.56202419 26.73550607 -88 23 C-82.74982382 19.68310692 -76.35979845 18.83353181 -70.35644531 17.68359375 C-64.68364766 16.52823781 -59.10377839 15.00506624 -53.50836182 13.52719116 C-51.50084738 13.00022244 -49.49102398 12.48329526 -47.47998047 11.9699707 C-36.58981545 9.18982431 -25.78909716 6.1456507 -15 3 C-12.81439874 2.36839222 -10.6272598 1.74203586 -8.4375 1.125 C-7.65246094 0.90070312 -6.86742187 0.67640625 -6.05859375 0.4453125 C-4 0 -4 0 0 0 Z " fill="#FDFEFE" transform="translate(599,620)"/>
<path d="M0 0 C1.950136 2.06665356 3.27520075 3.75999519 4.75 6.125 C5.59101777 7.40544458 6.43487436 8.68402814 7.28125 9.9609375 C7.71695313 10.62577148 8.15265625 11.29060547 8.6015625 11.97558594 C10.03037617 14.04397332 11.55825796 15.97406119 13.15625 17.9140625 C20.74567439 27.21715179 20.74567439 27.21715179 21.38671875 31.7109375 C20.89468839 34.35506588 20.05899608 36.52775292 19 39 C18.27765426 41.37077577 17.56973354 43.74598625 16.875 46.125 C16.25489646 48.08488929 15.63162757 50.04379422 15 52 C10.69471052 50.48280416 8.76150356 47.24844177 6.3125 43.625 C5.43616481 42.36239955 4.5585331 41.1006981 3.6796875 39.83984375 C3.2372168 39.20159668 2.79474609 38.56334961 2.33886719 37.90576172 C0.26529406 34.95420959 -1.89146242 32.06776383 -4.0625 29.1875 C-5.16271484 27.72376953 -5.16271484 27.72376953 -6.28515625 26.23046875 C-7.81209074 24.14471226 -7.81209074 24.14471226 -9 23 C-16.67836247 23.28782254 -23.2572331 26.21137213 -30.3125 29.0625 C-32.64014665 29.99534035 -34.96949852 30.92394045 -37.30078125 31.84765625 C-38.83472534 32.4665271 -38.83472534 32.4665271 -40.3996582 33.09790039 C-43 34 -43 34 -46 34 C-45.43524917 30.64121876 -44.74660261 27.32302896 -44 24 C-43.76667969 22.94554687 -43.53335937 21.89109375 -43.29296875 20.8046875 C-43.01066406 19.75539063 -42.72835938 18.70609375 -42.4375 17.625 C-42.18871094 16.64789062 -41.93992187 15.67078125 -41.68359375 14.6640625 C-39.07899434 10.54263142 -35.45226542 9.6566569 -31 8 C-29.03897213 7.20204497 -27.07803888 6.40385738 -25.1171875 5.60546875 C-23.03763012 4.79646061 -20.95688048 3.99051104 -18.875 3.1875 C-17.30685547 2.55811523 -17.30685547 2.55811523 -15.70703125 1.91601562 C-5.42034794 -2.03089763 -5.42034794 -2.03089763 0 0 Z " fill="#D11D25" transform="translate(549,837)"/>
<path d="M0 0 C3.04775307 2.99118225 5.4590008 6.57412205 8 10 C8.53496094 10.71124023 9.06992187 11.42248047 9.62109375 12.15527344 C11.40516961 14.53238565 13.17348813 16.92046802 14.9375 19.3125 C15.51749756 20.08907959 16.09749512 20.86565918 16.69506836 21.66577148 C17.23784424 22.41157471 17.78062012 23.15737793 18.33984375 23.92578125 C19.07255493 24.92218628 19.07255493 24.92218628 19.82006836 25.9387207 C21.6339611 29.10749711 22.24484172 31.70552416 21.56274414 35.31176758 C21.30614014 36.08157959 21.04953613 36.8513916 20.78515625 37.64453125 C20.51123047 38.48564453 20.23730469 39.32675781 19.95507812 40.19335938 C19.66052734 41.05767578 19.36597656 41.92199219 19.0625 42.8125 C18.77181641 43.69615234 18.48113281 44.57980469 18.18164062 45.49023438 C17.46492164 47.66389032 16.73747903 49.83331776 16 52 C12.67825879 50.60502076 11.06424795 49.12381508 9.01171875 46.18359375 C8.47313232 45.42288574 7.9345459 44.66217773 7.37963867 43.87841797 C6.82123291 43.07291504 6.26282715 42.26741211 5.6875 41.4375 C4.53246014 39.80252983 3.3762213 38.16840599 2.21875 36.53515625 C1.66574219 35.75156738 1.11273437 34.96797852 0.54296875 34.16064453 C-2.18293459 30.34351723 -5.0761983 26.66582714 -8 23 C-16.60455152 24.63982029 -24.42361323 27.7059427 -32.55664062 30.8984375 C-33.58595703 31.29546875 -34.61527344 31.6925 -35.67578125 32.1015625 C-36.60302002 32.46588379 -37.53025879 32.83020508 -38.4855957 33.20556641 C-41 34 -41 34 -45 34 C-43.95998267 28.79991333 -42.71401224 23.70513384 -41.1875 18.625 C-40.89230469 17.62726562 -40.59710937 16.62953125 -40.29296875 15.6015625 C-37.04298812 9.06232655 -27.50922779 7.39819909 -21.02514648 5.01904297 C-18.93609879 4.24948382 -16.85391626 3.46303909 -14.77148438 2.67578125 C-13.4404902 2.18385011 -12.10912207 1.69292932 -10.77734375 1.203125 C-9.57327881 0.75614258 -8.36921387 0.30916016 -7.12866211 -0.15136719 C-4.11082845 -0.96993838 -2.81468738 -1.24021141 0 0 Z " fill="#D11D24" transform="translate(559,804)"/>
<path d="M0 0 C4.35835033 2.25988536 7.22759502 4.37205366 9 9 C9.66198068 14.34488104 9.67332051 18.60348339 7.3125 23.5 C2.84567032 28.32900506 -1.09797024 29.65795029 -7.56640625 30.12890625 C-12.5410144 29.86540373 -15.13739488 26.95585973 -18.3125 23.4375 C-21.2273874 19.22710709 -21.68360756 15.00362754 -21 10 C-16.2230315 0.79991251 -9.81550849 -2.16444546 0 0 Z " fill="#FEFBFB" transform="translate(974,1041)"/>
</svg>
